<svg width="23" height="23" viewBox="0 0 23 23" fill="none" xmlns="http://www.w3.org/2000/svg">
<g filter="url(#filter0_i_2888_6)">
<circle cx="11.5" cy="11.5" r="11.5" fill="url(#paint0_linear_2888_6)"/>
</g>
<path fill-rule="evenodd" clip-rule="evenodd" d="M11.4 4C10.6268 4 10 4.6268 10 5.4V11.9333C10 12.7065 10.6268 13.3333 11.4 13.3333C12.1732 13.3333 12.8 12.7065 12.8 11.9333V5.4C12.8 4.6268 12.1732 4 11.4 4ZM11.4 15.2C10.6268 15.2 10 15.8268 10 16.6C10 17.3732 10.6268 18 11.4 18C12.1732 18 12.8 17.3732 12.8 16.6C12.8 15.8268 12.1732 15.2 11.4 15.2Z" fill="white"/>
<defs>
<filter id="filter0_i_2888_6" x="0" y="0" width="23" height="23" filterUnits="userSpaceOnUse" color-interpolation-filters="sRGB">
<feFlood flood-opacity="0" result="BackgroundImageFix"/>
<feBlend mode="normal" in="SourceGraphic" in2="BackgroundImageFix" result="shape"/>
<feColorMatrix in="SourceAlpha" type="matrix" values="0 0 0 0 0 0 0 0 0 0 0 0 0 0 0 0 0 0 127 0" result="hardAlpha"/>
<feOffset/>
<feGaussianBlur stdDeviation="2.5"/>
<feComposite in2="hardAlpha" operator="arithmetic" k2="-1" k3="1"/>
<feColorMatrix type="matrix" values="0 0 0 0 1 0 0 0 0 0.820833 0 0 0 0 0.820833 0 0 0 1 0"/>
<feBlend mode="plus-lighter" in2="shape" result="effect1_innerShadow_2888_6"/>
</filter>
<linearGradient id="paint0_linear_2888_6" x1="11.5" y1="0" x2="11.5" y2="23" gradientUnits="userSpaceOnUse">
<stop stop-color="#D5003C"/>
<stop offset="1" stop-color="#FF0004"/>
</linearGradient>
</defs>
</svg>
