<svg width="55" height="109" viewBox="0 0 55 109" fill="none" xmlns="http://www.w3.org/2000/svg">
<path d="M0.499999 106.716C0.499999 107.978 1.52286 109.005 2.7829 108.952C9.16059 108.685 15.4479 107.299 21.3562 104.851C27.9685 102.113 33.9765 98.0981 39.0373 93.0373C44.0981 87.9765 48.1126 81.9685 50.8514 75.3563C53.5903 68.744 55 61.657 55 54.5C55 47.343 53.5903 40.256 50.8514 33.6438C48.1126 27.0315 44.0981 21.0235 39.0373 15.9627C33.9765 10.9019 27.9685 6.88744 21.3562 4.14856C15.4479 1.70126 9.16059 0.315205 2.7829 0.0478295C1.52285 -0.00499622 0.499999 1.02236 0.499999 2.28352V2.28352C0.499999 3.54467 1.52293 4.56158 2.78276 4.61924C8.56046 4.88364 14.2544 6.15019 19.6085 8.36795C25.6667 10.8773 31.1712 14.5554 35.8079 19.1921C40.4446 23.8288 44.1227 29.3333 46.632 35.3915C49.1414 41.4496 50.433 47.9427 50.433 54.5C50.433 61.0573 49.1414 67.5504 46.632 73.6085C44.1227 79.6667 40.4446 85.1712 35.8079 89.8079C31.1712 94.4446 25.6667 98.1227 19.6085 100.632C14.2544 102.85 8.56046 104.116 2.78277 104.381C1.52293 104.438 0.499999 105.455 0.499999 106.716V106.716Z" fill="#00D0FF"/>
</svg>
