<svg width="208" height="33" viewBox="0 0 208 33" fill="none" xmlns="http://www.w3.org/2000/svg">
<mask id="mask0_2381_48" style="mask-type:alpha" maskUnits="userSpaceOnUse" x="0" y="0" width="208" height="33">
<path fill-rule="evenodd" clip-rule="evenodd" d="M6.39938 0C5.6924 0 5.11928 0.573119 5.11928 1.2801V31.1492C5.11928 31.8561 5.6924 32.4293 6.39938 32.4293C7.10636 32.4293 7.67948 31.8561 7.67948 31.1492V1.2801C7.67948 0.573121 7.10636 0 6.39938 0ZM113.927 3.41413C113.22 3.41413 112.647 3.98725 112.647 4.69424V27.7361C112.647 28.4431 113.22 29.0162 113.927 29.0162C114.634 29.0162 115.207 28.4431 115.207 27.7361V4.69424C115.207 3.98726 114.634 3.41413 113.927 3.41413ZM0 6.40082C0 5.69384 0.573122 5.12072 1.2801 5.12072C1.98708 5.12072 2.5602 5.69384 2.5602 6.40082V26.8825C2.5602 27.5894 1.98708 28.1626 1.2801 28.1626C0.573122 28.1626 0 27.5894 0 26.8825V6.40082ZM20.4771 6.40082C20.4771 5.69384 21.0502 5.12072 21.7572 5.12072C22.4642 5.12072 23.0373 5.69384 23.0373 6.40082V26.8825C23.0373 27.5894 22.4642 28.1626 21.7572 28.1626C21.0502 28.1626 20.4771 27.5894 20.4771 26.8825V6.40082ZM11.5225 6.82731C10.8155 6.82731 10.2424 7.40043 10.2424 8.10741V25.1754C10.2424 25.8824 10.8155 26.4555 11.5225 26.4555C12.2295 26.4555 12.8026 25.8824 12.8026 25.1754V8.10741C12.8026 7.40043 12.2295 6.82731 11.5225 6.82731ZM25.6041 9.81447C25.6041 9.10749 26.1772 8.53437 26.8842 8.53437C27.5912 8.53437 28.1643 9.10749 28.1643 9.81448V22.6155C28.1643 23.3225 27.5912 23.8956 26.8842 23.8956C26.1772 23.8956 25.6041 23.3225 25.6041 22.6155V9.81447ZM47.3613 8.53437C46.6543 8.53437 46.0812 9.10749 46.0812 9.81447V22.6155C46.0812 23.3225 46.6543 23.8956 47.3613 23.8956C48.0683 23.8956 48.6414 23.3225 48.6414 22.6155V9.81448C48.6414 9.10749 48.0683 8.53437 47.3613 8.53437ZM102.409 11.5211C102.409 10.8141 102.982 10.241 103.689 10.241C104.396 10.241 104.969 10.8141 104.969 11.5211V21.7619C104.969 22.4689 104.396 23.042 103.689 23.042C102.982 23.042 102.409 22.4689 102.409 21.7619V11.5211ZM119.05 10.241C118.343 10.241 117.77 10.8141 117.77 11.5211V21.7619C117.77 22.4689 118.343 23.042 119.05 23.042C119.757 23.042 120.331 22.4689 120.331 21.7619V11.5211C120.331 10.8141 119.757 10.241 119.05 10.241ZM107.528 8.10741C107.528 7.40043 108.101 6.82731 108.808 6.82731C109.515 6.82731 110.088 7.40043 110.088 8.10741V25.1754C110.088 25.8824 109.515 26.4555 108.808 26.4555C108.101 26.4555 107.528 25.8824 107.528 25.1754V8.10741ZM122.89 4.69424C122.89 3.98725 123.463 3.41413 124.17 3.41413C124.877 3.41413 125.45 3.98726 125.45 4.69424V27.7361C125.45 28.4431 124.877 29.0162 124.17 29.0162C123.463 29.0162 122.89 28.4431 122.89 27.7361V4.69424ZM57.6075 8.53437C56.9006 8.53437 56.3274 9.10749 56.3274 9.81447V22.6155C56.3274 23.3225 56.9006 23.8956 57.6075 23.8956C58.3145 23.8956 58.8876 23.3225 58.8876 22.6155V9.81448C58.8876 9.10749 58.3145 8.53437 57.6075 8.53437ZM76.8046 9.81447C76.8046 9.10749 77.3777 8.53437 78.0847 8.53437C78.7916 8.53437 79.3648 9.10749 79.3648 9.81448V22.6155C79.3648 23.3225 78.7916 23.8956 78.0847 23.8956C77.3777 23.8956 76.8046 23.3225 76.8046 22.6155V9.81447ZM88.3271 8.53437C87.6201 8.53437 87.047 9.10749 87.047 9.81447V22.6155C87.047 23.3225 87.6201 23.8956 88.3271 23.8956C89.034 23.8956 89.6072 23.3225 89.6072 22.6155V9.81448C89.6072 9.10749 89.034 8.53437 88.3271 8.53437ZM81.9277 8.10741C81.9277 7.40043 82.5008 6.82731 83.2078 6.82731C83.9148 6.82731 84.4879 7.40043 84.4879 8.10741V24.322C84.4879 25.029 83.9148 25.6021 83.2078 25.6021C82.5008 25.6021 81.9277 25.029 81.9277 24.322V8.10741ZM98.5695 6.82731C97.8625 6.82731 97.2894 7.40043 97.2894 8.10741V24.322C97.2894 25.029 97.8625 25.6021 98.5695 25.6021C99.2764 25.6021 99.8496 25.029 99.8496 24.322V8.10741C99.8496 7.40043 99.2764 6.82731 98.5695 6.82731ZM30.7234 8.10741C30.7234 7.40043 31.2965 6.82731 32.0035 6.82731C32.7104 6.82731 33.2836 7.40043 33.2836 8.10741V24.322C33.2836 25.029 32.7104 25.6021 32.0035 25.6021C31.2965 25.6021 30.7234 25.029 30.7234 24.322V8.10741ZM42.2459 6.82731C41.5389 6.82731 40.9658 7.40043 40.9658 8.10741V24.322C40.9658 25.029 41.5389 25.6021 42.2459 25.6021C42.9528 25.6021 43.526 25.029 43.526 24.322V8.10741C43.526 7.40043 42.9528 6.82731 42.2459 6.82731ZM51.2043 8.10741C51.2043 7.40043 51.7774 6.82731 52.4844 6.82731C53.1914 6.82731 53.7645 7.40043 53.7645 8.10741V24.322C53.7645 25.029 53.1914 25.6021 52.4844 25.6021C51.7774 25.6021 51.2043 25.029 51.2043 24.322V8.10741ZM62.723 6.82731C62.016 6.82731 61.4429 7.40043 61.4429 8.10741V24.322C61.4429 25.029 62.016 25.6021 62.723 25.6021C63.43 25.6021 64.0031 25.029 64.0031 24.322V8.10741C64.0031 7.40043 63.43 6.82731 62.723 6.82731ZM66.566 8.96046C66.566 8.25348 67.1391 7.68036 67.8461 7.68036C68.5531 7.68036 69.1262 8.25348 69.1262 8.96046V23.4683C69.1262 24.1753 68.5531 24.7484 67.8461 24.7484C67.1391 24.7484 66.566 24.1753 66.566 23.4683V8.96046ZM15.3617 1.2801C15.3617 0.573119 15.9348 0 16.6418 0C17.3488 0 17.9219 0.573121 17.9219 1.2801V31.1492C17.9219 31.8561 17.3488 32.4293 16.6418 32.4293C15.9348 32.4293 15.3617 31.8561 15.3617 31.1492V1.2801ZM37.1227 2.55964C36.4158 2.55964 35.8426 3.13276 35.8426 3.83974V29.4418C35.8426 30.1488 36.4158 30.7219 37.1227 30.7219C37.8297 30.7219 38.4028 30.1488 38.4028 29.4418V3.83974C38.4028 3.13276 37.8297 2.55964 37.1227 2.55964ZM71.6891 3.83974C71.6891 3.13276 72.2622 2.55964 72.9692 2.55964C73.6762 2.55964 74.2493 3.13276 74.2493 3.83974V29.4418C74.2493 30.1488 73.6762 30.7219 72.9692 30.7219C72.2622 30.7219 71.6891 30.1488 71.6891 29.4418V3.83974ZM93.4463 2.55964C92.7393 2.55964 92.1662 3.13276 92.1662 3.83974V29.4418C92.1662 30.1488 92.7393 30.7219 93.4463 30.7219C94.1533 30.7219 94.7264 30.1488 94.7264 29.4418V3.83974C94.7264 3.13276 94.1533 2.55964 93.4463 2.55964ZM128.009 6.40082C128.009 5.69384 128.582 5.12072 129.289 5.12072C129.996 5.12072 130.569 5.69384 130.569 6.40082V26.8825C130.569 27.5894 129.996 28.1626 129.289 28.1626C128.582 28.1626 128.009 27.5894 128.009 26.8825V6.40082ZM149.774 5.12072C149.067 5.12072 148.494 5.69384 148.494 6.40082V26.8825C148.494 27.5894 149.067 28.1626 149.774 28.1626C150.481 28.1626 151.054 27.5894 151.054 26.8825V6.40082C151.054 5.69384 150.481 5.12072 149.774 5.12072ZM138.247 8.10741C138.247 7.40043 138.821 6.82731 139.528 6.82731C140.234 6.82731 140.808 7.40043 140.808 8.10741V25.1754C140.808 25.8824 140.234 26.4555 139.528 26.4555C138.821 26.4555 138.247 25.8824 138.247 25.1754V8.10741ZM154.893 8.53437C154.186 8.53437 153.613 9.10749 153.613 9.81447V22.6155C153.613 23.3225 154.186 23.8956 154.893 23.8956C155.6 23.8956 156.173 23.3225 156.173 22.6155V9.81448C156.173 9.10749 155.6 8.53437 154.893 8.53437ZM174.094 9.81447C174.094 9.10749 174.667 8.53437 175.374 8.53437C176.081 8.53437 176.654 9.10749 176.654 9.81448V22.6155C176.654 23.3225 176.081 23.8956 175.374 23.8956C174.667 23.8956 174.094 23.3225 174.094 22.6155V9.81447ZM185.616 8.53437C184.909 8.53437 184.336 9.10749 184.336 9.81447V22.6155C184.336 23.3225 184.909 23.8956 185.616 23.8956C186.323 23.8956 186.897 23.3225 186.897 22.6155V9.81448C186.897 9.10749 186.323 8.53437 185.616 8.53437ZM204.813 9.81447C204.813 9.10749 205.387 8.53437 206.094 8.53437C206.8 8.53437 207.374 9.10749 207.374 9.81448V22.6155C207.374 23.3225 206.8 23.8956 206.094 23.8956C205.387 23.8956 204.813 23.3225 204.813 22.6155V9.81447ZM160.012 6.82731C159.305 6.82731 158.732 7.40043 158.732 8.10741V24.322C158.732 25.029 159.305 25.6021 160.012 25.6021C160.719 25.6021 161.292 25.029 161.292 24.322V8.10741C161.292 7.40043 160.719 6.82731 160.012 6.82731ZM168.975 8.10741C168.975 7.40043 169.548 6.82731 170.255 6.82731C170.962 6.82731 171.535 7.40043 171.535 8.10741V24.322C171.535 25.029 170.962 25.6021 170.255 25.6021C169.548 25.6021 168.975 25.029 168.975 24.322V8.10741ZM180.493 6.82731C179.786 6.82731 179.213 7.40043 179.213 8.10741V24.322C179.213 25.029 179.786 25.6021 180.493 25.6021C181.2 25.6021 181.773 25.029 181.773 24.322V8.10741C181.773 7.40043 181.2 6.82731 180.493 6.82731ZM189.456 8.10741C189.456 7.40043 190.029 6.82731 190.736 6.82731C191.443 6.82731 192.016 7.40043 192.016 8.10741V24.322C192.016 25.029 191.443 25.6021 190.736 25.6021C190.029 25.6021 189.456 25.029 189.456 24.322V8.10741ZM195.855 7.68036C195.148 7.68036 194.575 8.25348 194.575 8.96046V23.4683C194.575 24.1753 195.148 24.7484 195.855 24.7484C196.562 24.7484 197.135 24.1753 197.135 23.4683V8.96046C197.135 8.25348 196.562 7.68036 195.855 7.68036ZM133.132 1.2801C133.132 0.573119 133.705 0 134.412 0C135.119 0 135.692 0.573121 135.692 1.2801V31.1492C135.692 31.8561 135.119 32.4293 134.412 32.4293C133.705 32.4293 133.132 31.8561 133.132 31.1492V1.2801ZM144.651 0C143.944 0 143.371 0.573119 143.371 1.2801V31.1492C143.371 31.8561 143.944 32.4293 144.651 32.4293C145.358 32.4293 145.931 31.8561 145.931 31.1492V1.2801C145.931 0.573121 145.358 0 144.651 0ZM163.855 3.83974C163.855 3.13276 164.428 2.55964 165.135 2.55964C165.842 2.55964 166.416 3.13276 166.416 3.83974V29.4418C166.416 30.1488 165.842 30.7219 165.135 30.7219C164.428 30.7219 163.855 30.1488 163.855 29.4418V3.83974ZM200.978 2.55964C200.271 2.55964 199.698 3.13276 199.698 3.83974V29.4418C199.698 30.1488 200.271 30.7219 200.978 30.7219C201.685 30.7219 202.258 30.1488 202.258 29.4418V3.83974C202.258 3.13276 201.685 2.55964 200.978 2.55964Z" fill="white"/>
</mask>
<g mask="url(#mask0_2381_48)">
<rect width="207" height="34" fill="url(#paint0_linear_2381_48)"/>
</g>
<defs>
<linearGradient id="paint0_linear_2381_48" x1="202.203" y1="13.6449" x2="9.70557" y2="13.6448" gradientUnits="userSpaceOnUse">
<stop stop-color="#E600AC"/>
<stop offset="0.924295" stop-color="#1ED6F4"/>
</linearGradient>
</defs>
</svg>
