<svg width="27" height="28" viewBox="0 0 27 28" fill="none" xmlns="http://www.w3.org/2000/svg">
<path d="M11.1815 26.6407L3.06053 22.1385C1.78893 21.4335 1 20.0941 1 18.6401V9.56842C1 8.17075 1.72953 6.87445 2.92428 6.14915L11.0501 1.21625C12.2874 0.465138 13.8339 0.441041 15.094 1.15324L23.9682 6.16893C25.2237 6.87854 26 8.20905 26 9.65121V18.5593C26 20.0559 25.1646 21.4273 23.8347 22.1138L14.9556 26.6968C13.7673 27.3102 12.3511 27.2891 11.1815 26.6407Z" fill="#061132" fill-opacity="0.56" stroke="white" stroke-opacity="0.37"/>
<path d="M11.2326 24.0312L5.6929 20.8609C4.44786 20.1484 3.67969 18.8237 3.67969 17.3892V10.8284C3.67969 9.45089 4.38844 8.17033 5.55567 7.43889L11.1003 3.96436C12.3607 3.17453 13.9553 3.1493 15.24 3.89887L21.3383 7.45679C22.567 8.17367 23.3225 9.48919 23.3225 10.9118V17.3077C23.3225 18.7855 22.5077 20.1429 21.2035 20.8379L15.1004 24.0897C13.8868 24.7363 12.4261 24.7142 11.2326 24.0312Z" fill="url(#paint0_linear_2726_661)"/>
<mask id="mask0_2726_661" style="mask-type:alpha" maskUnits="userSpaceOnUse" x="3" y="3" width="21" height="22">
<path d="M11.2307 24.0293L5.69095 20.859C4.4459 20.1465 3.67773 18.8218 3.67773 17.3873V10.8264C3.67773 9.44894 4.38649 8.16838 5.55372 7.43693L11.0983 3.96241C12.3587 3.17258 13.9533 3.14735 15.2381 3.89692L21.3363 7.45484C22.5651 8.17171 23.3206 9.48724 23.3206 10.9098V17.3057C23.3206 18.7836 22.5058 20.141 21.2015 20.8359L15.0984 24.0877C13.8848 24.7343 12.4242 24.7123 11.2307 24.0293Z" fill="url(#paint1_linear_2726_661)"/>
</mask>
<g mask="url(#mask0_2726_661)">
<path d="M13.0522 13.8373L-0.787109 5.80162L14.3915 -0.00195312L27.7843 5.35519L13.0522 13.8373Z" fill="white" fill-opacity="0.5" style="mix-blend-mode:overlay"/>
</g>
<path fill-rule="evenodd" clip-rule="evenodd" d="M12.7129 7.14258C12.1606 7.14258 11.7129 7.59029 11.7129 8.14258V15.964C11.7129 16.5163 12.1606 16.964 12.7129 16.964H13.3915C13.9437 16.964 14.3915 16.5163 14.3915 15.964V8.14258C14.3915 7.59029 13.9437 7.14258 13.3915 7.14258H12.7129ZM12.7129 18.7505C12.1606 18.7505 11.7129 19.1982 11.7129 19.7505V20.4291C11.7129 20.9814 12.1606 21.4291 12.7129 21.4291H13.3915C13.9437 21.4291 14.3915 20.9814 14.3915 20.4291V19.7505C14.3915 19.1982 13.9437 18.7505 13.3915 18.7505H12.7129Z" fill="#FFECE2"/>
<defs>
<linearGradient id="paint0_linear_2726_661" x1="15.458" y1="4.94465" x2="16.0261" y2="41.9498" gradientUnits="userSpaceOnUse">
<stop offset="0.113952" stop-color="#DF4226"/>
<stop offset="0.828411" stop-color="#AE0600"/>
</linearGradient>
<linearGradient id="paint1_linear_2726_661" x1="15.4561" y1="4.9427" x2="16.1558" y2="30.4812" gradientUnits="userSpaceOnUse">
<stop stop-color="#CF1B1B"/>
<stop offset="0.661054" stop-color="#680303"/>
</linearGradient>
</defs>
</svg>
