<svg width="127" height="53" viewBox="0 0 127 53" fill="none" xmlns="http://www.w3.org/2000/svg">
<path d="M0 25L10.5 52.5001H117L127 25H0Z" fill="url(#paint0_linear_3067_44)"/>
<path d="M112.468 33.1067C115 39.1061 116.363 45.5145 116.49 52.0001L10.5098 52.0001C10.6369 45.5145 11.9999 39.1061 14.5318 33.1067C17.1938 26.7991 21.0961 21.0666 26.0167 16.2371C30.9374 11.4075 36.7801 7.5755 43.2118 4.96077C49.6434 2.34602 56.5375 1 63.5001 1C70.4628 1 77.3568 2.34602 83.7885 4.96076C90.2201 7.5755 96.0628 11.4075 100.984 16.2371C105.904 21.0666 109.806 26.7991 112.468 33.1067Z" fill="#00443C"/>
<path d="M112.468 33.1067C115 39.1061 116.363 45.5145 116.49 52.0001L10.5098 52.0001C10.6369 45.5145 11.9999 39.1061 14.5318 33.1067C17.1938 26.7991 21.0961 21.0666 26.0167 16.2371C30.9374 11.4075 36.7801 7.5755 43.2118 4.96077C49.6434 2.34602 56.5375 1 63.5001 1C70.4628 1 77.3568 2.34602 83.7885 4.96076C90.2201 7.5755 96.0628 11.4075 100.984 16.2371C105.904 21.0666 109.806 26.7991 112.468 33.1067Z" fill="url(#paint1_radial_3067_44)"/>
<path d="M112.468 33.1067C115 39.1061 116.363 45.5145 116.49 52.0001L10.5098 52.0001C10.6369 45.5145 11.9999 39.1061 14.5318 33.1067C17.1938 26.7991 21.0961 21.0666 26.0167 16.2371C30.9374 11.4075 36.7801 7.5755 43.2118 4.96077C49.6434 2.34602 56.5375 1 63.5001 1C70.4628 1 77.3568 2.34602 83.7885 4.96076C90.2201 7.5755 96.0628 11.4075 100.984 16.2371C105.904 21.0666 109.806 26.7991 112.468 33.1067Z" stroke="url(#paint2_radial_3067_44)" stroke-width="2"/>
<path d="M112.468 33.1067C115 39.1061 116.363 45.5145 116.49 52.0001L10.5098 52.0001C10.6369 45.5145 11.9999 39.1061 14.5318 33.1067C17.1938 26.7991 21.0961 21.0666 26.0167 16.2371C30.9374 11.4075 36.7801 7.5755 43.2118 4.96077C49.6434 2.34602 56.5375 1 63.5001 1C70.4628 1 77.3568 2.34602 83.7885 4.96076C90.2201 7.5755 96.0628 11.4075 100.984 16.2371C105.904 21.0666 109.806 26.7991 112.468 33.1067Z" stroke="url(#paint3_radial_3067_44)" stroke-width="2"/>
<defs>
<linearGradient id="paint0_linear_3067_44" x1="64.5002" y1="52.5001" x2="64.5002" y2="26.5" gradientUnits="userSpaceOnUse">
<stop offset="0.519154" stop-color="#03272B"/>
<stop offset="1" stop-color="#02271D" stop-opacity="0"/>
</linearGradient>
<radialGradient id="paint1_radial_3067_44" cx="0" cy="0" r="1" gradientUnits="userSpaceOnUse" gradientTransform="translate(64.0348 56.2617) rotate(-90) scale(76.2386 122.174)">
<stop offset="0.0351809" stop-color="#41D279"/>
<stop offset="0.571845" stop-color="#005B62" stop-opacity="0.44"/>
<stop offset="1" stop-color="#002628" stop-opacity="0"/>
</radialGradient>
<radialGradient id="paint2_radial_3067_44" cx="0" cy="0" r="1" gradientUnits="userSpaceOnUse" gradientTransform="translate(112.244 112.264) rotate(-129.006) scale(94.1273 85.7476)">
<stop stop-color="#FEFFFF"/>
<stop offset="0.350674" stop-color="#72FFB8"/>
<stop offset="1" stop-color="#5AC476"/>
</radialGradient>
<radialGradient id="paint3_radial_3067_44" cx="0" cy="0" r="1" gradientUnits="userSpaceOnUse" gradientTransform="translate(20 -8.83336) rotate(53.4805) scale(95.783 87.4893)">
<stop stop-color="#FEFFFF"/>
<stop offset="0.462641" stop-color="#88FF9A"/>
<stop offset="1" stop-color="#1BB90C" stop-opacity="0"/>
</radialGradient>
</defs>
</svg>
