<svg width="467" height="39" viewBox="0 0 467 39" fill="none" xmlns="http://www.w3.org/2000/svg">
<path fill-rule="evenodd" clip-rule="evenodd" d="M34.0873 39C33.5267 39 32.9918 38.7647 32.613 38.3514L0.529637 3.35145C-0.646266 2.06865 0.263734 0 2.00394 0H5.25327C5.80867 0 6.33905 0.230951 6.71741 0.63754L39.2868 35.6375C40.4772 36.9167 39.57 39 37.8227 39H34.0873ZM57.6543 0C55.9141 0 55.0041 2.06865 56.18 3.35145L88.2634 38.3514C88.6422 38.7647 89.1771 39 89.7377 39H93.4731C95.2204 39 96.1276 36.9167 94.9372 35.6375L62.3678 0.637539C61.9894 0.23095 61.4591 0 60.9037 0H57.6543ZM145.325 39C144.77 39 144.24 38.7694 143.861 38.3634L111.25 3.3634C110.059 2.08454 110.966 0 112.714 0H321.528C322.089 0 322.624 0.235293 323.003 0.648551L355.086 35.6486C356.262 36.9314 355.352 39 353.612 39H145.325ZM368.789 39C368.228 39 367.693 38.7647 367.315 38.3514L335.231 3.35145C334.055 2.06865 334.965 0 336.706 0H339.955C340.51 0 341.041 0.230951 341.419 0.63754L373.988 35.6375C375.179 36.9167 374.272 39 372.524 39H368.789ZM355.122 0C353.382 0 352.472 2.06865 353.648 3.35145L385.731 38.3514C386.11 38.7647 386.645 39 387.206 39H390.941C392.688 39 393.595 36.9167 392.405 35.6375L359.836 0.637539C359.457 0.23095 358.927 0 358.372 0H355.122ZM108.156 39C107.595 39 107.06 38.7647 106.681 38.3514L74.598 3.35145C73.4221 2.06865 74.3321 0 76.0723 0H79.3216C79.877 0 80.4074 0.230951 80.7858 0.63754L113.355 35.6375C114.546 36.9167 113.638 39 111.891 39H108.156ZM20.4219 0C18.6817 0 17.7717 2.06865 18.9476 3.35145L51.0309 38.3514C51.4098 38.7647 51.9446 39 52.5052 39H56.2407C57.988 39 58.8952 36.9167 57.7048 35.6375L25.1354 0.637539C24.757 0.23095 24.2266 0 23.6712 0H20.4219ZM405.622 39C405.062 39 404.527 38.7647 404.148 38.3514L372.065 3.35145C370.889 2.06865 371.799 0 373.539 0H376.788C377.344 0 377.874 0.230951 378.252 0.63754L410.822 35.6375C412.012 36.9167 411.105 39 409.358 39H405.622ZM94.4883 0C92.7481 0 91.8381 2.06865 93.014 3.35145L125.097 38.3514C125.476 38.7647 126.011 39 126.572 39H130.307C132.054 39 132.962 36.9167 131.771 35.6375L99.2018 0.637539C98.8234 0.23095 98.293 0 97.7376 0H94.4883ZM70.9213 39C70.3606 39 69.8258 38.7647 69.447 38.3514L37.3636 3.35145C36.1877 2.06865 37.0977 0 38.8379 0H42.0872C42.6426 0 43.173 0.230951 43.5514 0.63754L76.1208 35.6375C77.3112 36.9167 76.404 39 74.6567 39H70.9213ZM391.956 0C390.215 0 389.305 2.06865 390.481 3.35145L422.565 38.3514C422.943 38.7647 423.478 39 424.039 39H427.774C429.522 39 430.429 36.9167 429.238 35.6375L396.669 0.637539C396.291 0.23095 395.76 0 395.205 0H391.956ZM442.456 39C441.895 39 441.36 38.7647 440.981 38.3514L408.898 3.35145C407.722 2.06865 408.632 0 410.372 0H413.622C414.177 0 414.707 0.230951 415.086 0.63754L447.655 35.6375C448.845 36.9167 447.938 39 446.191 39H442.456ZM428.789 0C427.049 0 426.139 2.06865 427.315 3.35145L459.398 38.3514C459.777 38.7647 460.312 39 460.872 39H464.608C466.355 39 467.262 36.9167 466.072 35.6375L433.502 0.637538C433.124 0.23095 432.594 0 432.038 0H428.789Z" fill="url(#paint0_linear_3067_28)"/>
<defs>
<linearGradient id="paint0_linear_3067_28" x1="0" y1="20" x2="466.479" y2="20" gradientUnits="userSpaceOnUse">
<stop stop-color="#466BFF" stop-opacity="0"/>
<stop offset="0.5" stop-color="#1070FF" stop-opacity="0.5"/>
<stop offset="1" stop-color="#466BFF" stop-opacity="0"/>
</linearGradient>
</defs>
</svg>
