<svg width="202" height="510" viewBox="0 0 202 510" fill="none" xmlns="http://www.w3.org/2000/svg">
<rect x="0.5" y="0.5" width="201" height="509" rx="100.5" fill="url(#paint0_radial_3065_16)" stroke="url(#paint1_linear_3065_16)"/>
<mask id="mask0_3065_16" style="mask-type:alpha" maskUnits="userSpaceOnUse" x="1" y="1" width="200" height="508">
<rect x="1" y="1" width="200" height="508" rx="100" fill="white"/>
</mask>
<g mask="url(#mask0_3065_16)">
<path d="M100.321 509.146C100.321 450.679 81.3342 409 0 409" stroke="url(#paint2_linear_3065_16)"/>
<path d="M100.323 509.146C100.323 450.679 119.567 409 202 409" stroke="url(#paint3_linear_3065_16)"/>
<path d="M100.321 509.145C100.321 464.11 81.3342 432.006 0 432.006" stroke="url(#paint4_linear_3065_16)"/>
<path d="M100.323 509.145C100.323 464.11 119.567 432.006 202 432.006" stroke="url(#paint5_linear_3065_16)"/>
<path d="M100.324 509.148C100.324 476.755 116.745 453.662 187.088 453.662" stroke="url(#paint6_linear_3065_16)"/>
<path d="M100.323 509.148C100.323 476.755 83.9017 453.662 13.5586 453.662" stroke="url(#paint7_linear_3065_16)"/>
<path d="M142.074 467.842C152.872 476.273 159.069 487.666 159.428 499.596L100.975 500.191L100.97 500.19L42.5103 499.687C42.8387 487.756 49.0082 476.354 59.7851 467.906C70.7159 459.337 85.4922 454.512 100.913 454.5C116.333 454.488 131.122 459.29 142.074 467.842Z" stroke="url(#paint8_linear_3065_16)"/>
</g>
<rect x="5.5" y="6.16797" width="191" height="498.834" rx="95.5" stroke="#81A9FF" stroke-opacity="0.75"/>
<defs>
<radialGradient id="paint0_radial_3065_16" cx="0" cy="0" r="1" gradientUnits="userSpaceOnUse" gradientTransform="translate(118.576 595.443) rotate(-90) scale(719.371 736.364)">
<stop stop-color="#1070FF" stop-opacity="0.78"/>
<stop offset="0.341826" stop-color="#004EC2" stop-opacity="0.22"/>
<stop offset="0.760214" stop-color="#0043B7" stop-opacity="0.07"/>
<stop offset="1" stop-opacity="0"/>
</radialGradient>
<linearGradient id="paint1_linear_3065_16" x1="101" y1="1" x2="101" y2="509" gradientUnits="userSpaceOnUse">
<stop stop-color="#020498" stop-opacity="0.15"/>
<stop offset="0.283598" stop-color="#429AFF" stop-opacity="0.6"/>
</linearGradient>
<linearGradient id="paint2_linear_3065_16" x1="4.03978" y1="409.579" x2="82.8461" y2="528.801" gradientUnits="userSpaceOnUse">
<stop stop-color="#618CE0" stop-opacity="0"/>
<stop offset="0.954691" stop-color="#618CE0" stop-opacity="0.34"/>
</linearGradient>
<linearGradient id="paint3_linear_3065_16" x1="197.906" y1="409.579" x2="119.519" y2="529.769" gradientUnits="userSpaceOnUse">
<stop stop-color="#618CE0" stop-opacity="0"/>
<stop offset="0.954691" stop-color="#618CE0" stop-opacity="0.34"/>
</linearGradient>
<linearGradient id="paint4_linear_3065_16" x1="4.03978" y1="432.452" x2="57.3947" y2="537.244" gradientUnits="userSpaceOnUse">
<stop stop-color="#618CE0" stop-opacity="0"/>
<stop offset="0.954691" stop-color="#618CE0" stop-opacity="0.19"/>
</linearGradient>
<linearGradient id="paint5_linear_3065_16" x1="197.906" y1="432.452" x2="144.973" y2="537.818" gradientUnits="userSpaceOnUse">
<stop stop-color="#618CE0" stop-opacity="0"/>
<stop offset="0.954691" stop-color="#618CE0" stop-opacity="0.19"/>
</linearGradient>
<linearGradient id="paint6_linear_3065_16" x1="183.594" y1="453.983" x2="149.512" y2="534.468" gradientUnits="userSpaceOnUse">
<stop stop-color="#618CE0" stop-opacity="0"/>
<stop offset="0.954691" stop-color="#618CE0" stop-opacity="0.1"/>
</linearGradient>
<linearGradient id="paint7_linear_3065_16" x1="17.0525" y1="453.983" x2="51.1342" y2="534.468" gradientUnits="userSpaceOnUse">
<stop stop-color="#618CE0" stop-opacity="0"/>
<stop offset="0.954691" stop-color="#618CE0" stop-opacity="0.1"/>
</linearGradient>
<linearGradient id="paint8_linear_3065_16" x1="101.427" y1="529.421" x2="101.427" y2="453.998" gradientUnits="userSpaceOnUse">
<stop offset="0.448848" stop-color="#618CE0" stop-opacity="0"/>
<stop offset="0.954691" stop-color="#618CE0" stop-opacity="0.1"/>
</linearGradient>
</defs>
</svg>
