<svg width="463" height="36" viewBox="0 0 463 36" fill="none" xmlns="http://www.w3.org/2000/svg">
<path d="M29.7721 28.3639L42.0658 2.83092C42.899 1.1003 44.65 0 46.5708 0H428.001C431.597 0 434.017 3.68226 432.591 6.98326L421.558 32.5163C420.767 34.3474 418.963 35.533 416.968 35.533H34.2771C30.5927 35.533 28.1738 31.6836 29.7721 28.3639Z" fill="#A6B2FF" fill-opacity="0.15"/>
<path d="M443.985 35.0196L462.173 2.36396C462.544 1.69741 462.063 0.87738 461.3 0.87738H458.77C458.404 0.87738 458.067 1.07761 457.892 1.39931L440.117 34.055C439.754 34.7213 440.237 35.533 440.995 35.533H443.112C443.474 35.533 443.809 35.3366 443.985 35.0196Z" fill="#A6B2FF" fill-opacity="0.15"/>
<path d="M4.67275 34.1422L22.8607 1.48658C23.232 0.820034 22.75 0 21.9871 0H19.4574C19.0912 0 18.7542 0.200231 18.5791 0.521927L0.804521 33.1776C0.441822 33.8439 0.924172 34.6557 1.68284 34.6557H3.79911C4.16189 34.6557 4.49622 34.4592 4.67275 34.1422Z" fill="#A6B2FF" fill-opacity="0.15"/>
<path d="M433.739 34.5062L450.813 3.85054C451.556 2.51745 450.592 0.87738 449.066 0.87738H446.2C445.468 0.87738 444.794 1.27784 444.443 1.92123L427.757 32.5769C427.032 33.9096 427.997 35.533 429.514 35.533H431.992C432.718 35.533 433.386 35.1401 433.739 34.5062Z" fill="#A6B2FF" fill-opacity="0.15"/>
<path d="M18.1181 33.6288L35.1922 2.97316C35.9346 1.64007 34.9708 0 33.4449 0H30.579C29.8465 0 29.1726 0.400461 28.8224 1.04385L12.1364 31.6995C11.411 33.0322 12.3757 34.6557 13.893 34.6557H16.3709C17.0964 34.6557 17.7651 34.2627 18.1181 33.6288Z" fill="#A6B2FF" fill-opacity="0.15"/>
</svg>
